<svg width="111" height="34" viewBox="0 0 111 34" fill="none" xmlns="http://www.w3.org/2000/svg">
<path fill-rule="evenodd" clip-rule="evenodd" d="M2.69951 0.5C1.20861 0.5 0 1.70861 0 3.19951V30.8005C0 31.9895 0.768706 32.999 1.83625 33.359C1.96525 33.4025 2.0736 33.2714 2.01867 33.1469C1.89911 32.8757 1.78077 32.6073 1.6691 32.339C1.35412 31.6367 2.45279 31.1161 2.76725 31.8595C2.90476 32.1899 3.05239 32.5204 3.20001 32.8509C3.23503 32.9293 3.27006 33.0077 3.30494 33.0861C3.41655 33.337 3.66476 33.5 3.93929 33.5H4.19262C4.68393 33.5 5.01776 33.0003 4.83217 32.5453C4.65799 32.1184 4.48492 31.6903 4.31185 31.2623C3.94872 30.3642 3.58559 29.4661 3.21223 28.5781C2.89827 27.7936 4.03636 27.3557 4.35032 28.1402C4.72342 29.0487 5.09639 29.9674 5.46936 30.8861C5.76592 31.6166 6.06247 32.3471 6.35909 33.0725C6.46489 33.3312 6.71673 33.5 6.99623 33.5H7.50182C7.98898 33.5 8.3223 33.0082 8.14241 32.5554C7.51692 30.9812 6.89706 29.4056 6.27503 27.8245C5.77459 26.5525 5.27276 25.2769 4.76548 23.9957C4.45203 23.1701 5.59012 22.7321 5.90357 23.5577C6.74591 25.7227 7.60438 27.8879 8.45873 30.0426C8.85909 31.0523 9.25853 32.0598 9.65498 33.0638C9.7589 33.327 10.0131 33.5 10.296 33.5H10.6279C11.1103 33.5 11.4433 33.0172 11.2718 32.5664C10.5868 30.7657 9.90179 28.9695 9.21676 27.1733C8.31542 24.8099 7.41408 22.4466 6.51287 20.0729C6.19891 19.2884 7.33751 18.8094 7.65097 19.635C8.05194 20.6911 8.45295 21.7452 8.85352 22.7981C10.1544 26.2175 11.4506 29.6249 12.7267 33.0512C12.8272 33.321 13.0847 33.5 13.3726 33.5H14.1072C14.5881 33.5 14.921 33.0199 14.7525 32.5695C13.7801 29.9705 12.8078 27.3657 11.8355 24.7609C10.6606 21.6135 9.4858 18.4662 8.31083 15.3291C8.03783 14.504 9.17592 14.0661 9.44893 14.8912L9.44899 14.8914C11.716 20.9441 13.983 26.9969 16.2137 33.0492C16.3135 33.32 16.5716 33.5 16.8603 33.5H17.4636C17.9425 33.5 18.2753 33.0233 18.1104 32.5736C16.8933 29.2543 15.6822 25.935 14.4711 22.6157C13.033 18.6743 11.5949 14.7328 10.1467 10.7912C9.83326 9.9656 10.9714 9.52768 11.2848 10.3533C12.0912 12.5599 12.8977 14.7634 13.7033 16.9646C15.6687 22.3345 17.6291 27.6907 19.5715 33.0459C19.6704 33.3185 19.9293 33.5 20.2193 33.5H20.7046C21.1825 33.5 21.5152 33.0252 21.3522 32.576L11.9765 6.74621C11.6631 5.92063 12.8012 5.48271 13.1146 6.30829C14.7775 10.8894 16.4402 15.4809 18.1029 20.0723C19.6501 24.3446 21.1973 28.6169 22.7445 32.8809C22.8615 33.2033 23.2032 33.399 23.5149 33.2562C24.4455 32.8302 25.0919 31.8908 25.0919 30.8005V3.19951C25.0919 1.70861 23.8833 0.5 22.3924 0.5H2.69951Z" fill="#E3AF5D"/>
<path d="M35.0918 27.4222V6.14941H37.7065V15.5398C38.8922 13.4733 40.8988 11.8931 43.4831 11.8931C46.2498 11.8931 47.7092 13.7165 47.7092 17.2417V27.4222H45.1249V17.5759C45.1249 14.9016 44.0608 14.0507 42.3278 14.0507C39.9867 14.0507 38.2233 16.2388 37.7065 18.67V27.4222H35.0918Z" fill="white"/>
<path d="M64.037 12.1058V27.4222H61.4527V23.9274C60.267 26.0547 58.2604 27.6349 55.6457 27.6349C52.879 27.6349 51.4196 25.8116 51.4196 22.2863V12.1058H54.0039V21.9521C54.0039 24.6264 55.068 25.4773 56.801 25.4773C59.2029 25.4773 60.9967 23.198 61.4527 20.7061V12.1058H64.037Z" fill="white"/>
<path d="M80.456 12.1058V27.4222H77.8717V23.9274C76.686 26.0547 74.6794 27.6349 72.0647 27.6349C69.298 27.6349 67.8386 25.8116 67.8386 22.2863V12.1058H70.4229V21.9521C70.4229 24.6264 71.487 25.4773 73.22 25.4773C75.6219 25.4773 77.4157 23.198 77.8717 20.7061V12.1058H80.456Z" fill="white"/>
<path d="M89.702 27.6349C85.7495 27.6349 83.6213 25.538 82.922 23.0765L85.3239 22.4687C85.9624 24.4136 87.3305 25.6596 89.7628 25.6596C91.891 25.6596 93.1071 24.7175 93.1071 23.1676C93.1071 21.7697 92.043 21.1923 90.2796 20.7365L87.817 20.1287C85.1719 19.4905 83.4693 18.5788 83.4693 16.2084C83.4693 13.5949 85.6887 11.8931 89.0027 11.8931C92.4687 11.8931 94.5969 13.5645 95.357 15.9349L92.9247 16.5123C92.3775 14.9624 91.1309 13.8684 88.9419 13.8684C87.1177 13.8684 85.8407 14.6889 85.8407 16.0868C85.8407 17.3936 86.9049 17.9102 88.3338 18.2445L91.1309 18.9131C93.928 19.5513 95.4786 20.7365 95.4786 23.0461C95.4786 25.7204 93.4416 27.6349 89.702 27.6349Z" fill="white"/>
<path d="M97.4933 33.5001V31.3121H98.8919C100.655 31.3121 101.142 30.4916 101.719 28.9721L102.236 27.6045L96.0339 12.1058H98.527L103.422 24.3528L107.922 12.1058H110.324L104.152 28.8809C102.966 32.1022 101.993 33.5001 98.9223 33.5001H97.4933Z" fill="white"/>
</svg>
